<?xml version="1.0" encoding="utf-8"?>
<!-- Generator: Adobe Illustrator 23.0.1, SVG Export Plug-In . SVG Version: 6.00 Build 0)  -->
<svg version="1.1" id="Layer_1" xmlns="http://www.w3.org/2000/svg" xmlns:xlink="http://www.w3.org/1999/xlink" x="0px" y="0px"
	 viewBox="0 0 512 512" style="enable-background:new 0 0 512 512;" xml:space="preserve">
<style type="text/css">
	.st0{fill-rule:evenodd;clip-rule:evenodd;fill:#FFFFFF;}
	.st1{fill-rule:evenodd;clip-rule:evenodd;}
</style>
<symbol  id="LiousVuitton-Logo" viewBox="-96.38 -96.38 192.76 192.76">
	<polygon class="st0" points="-96.38,96.38 96.38,96.38 96.38,-96.38 -96.38,-96.38 -96.38,96.38 	"/>
	<path class="st1" d="M73.6-76.02h2.04v-17.24L63.18-80.21v-12.4h-2.1v17.41L73.6-88.3V-76.02L73.6-76.02z M15.02-76.02v-10.54
		c0-1.86-0.52-3.38-1.57-4.54c-1.11-1.28-2.62-1.86-4.54-1.86c-1.81,0-3.32,0.58-4.43,1.86c-1.11,1.16-1.63,2.68-1.63,4.54v10.54
		h2.1v-9.84c0-3.44,1.28-5.18,3.96-5.18c2.74,0,4.08,1.75,4.08,5.18v9.84H15.02L15.02-76.02z M21.43-76.02h9.96v-1.92h-3.96v-14.67
		h-1.98v14.67h-4.02V-76.02L21.43-76.02z M17.82-76.02h2.1v-16.6h-2.1V-76.02L17.82-76.02z M-0.52-76.02h2.27l-7.22-17.53
		l-7.22,17.53h2.27l4.95-12.29L-0.52-76.02L-0.52-76.02z M57.24-84.34c0-1.86-0.64-3.44-1.98-4.77c-1.22-1.28-2.8-1.92-4.6-1.92
		c-1.81,0-3.38,0.64-4.72,1.92c-1.34,1.34-1.98,2.91-1.98,4.77c0,1.86,0.58,3.44,1.86,4.72c1.28,1.34,2.91,1.98,4.83,1.98
		c1.92,0,3.49-0.64,4.72-1.98C56.6-80.91,57.24-82.48,57.24-84.34L57.24-84.34z M56.77-78.23c-1.75,1.69-3.79,2.56-6.11,2.56
		c-2.39,0-4.43-0.87-6.17-2.56c-1.69-1.69-2.56-3.73-2.56-6.11c0-2.45,0.87-4.48,2.56-6.17c1.69-1.63,3.73-2.45,6.17-2.45
		c2.39,0,4.48,0.82,6.11,2.45c1.69,1.69,2.56,3.73,2.56,6.17C59.34-81.96,58.46-79.92,56.77-78.23L56.77-78.23z M41.46-76.02v-1.92
		h-3.9v-14.67h-2.1v14.67H31.5v1.92H41.46L41.46-76.02z M-54.85-79.63c1.22-1.28,1.81-2.85,1.81-4.72c0-1.86-0.64-3.44-1.92-4.77
		c-1.28-1.28-2.85-1.92-4.66-1.92c-1.81,0-3.38,0.64-4.72,1.92c-1.22,1.34-1.92,2.91-1.92,4.77c0,1.86,0.64,3.44,1.86,4.72
		c1.28,1.34,2.85,1.98,4.77,1.98C-57.71-77.65-56.08-78.29-54.85-79.63L-54.85-79.63z M-53.51-78.23c-1.75,1.69-3.78,2.56-6.11,2.56
		c-2.39,0-4.48-0.87-6.11-2.56c-1.75-1.69-2.62-3.73-2.62-6.11c0-2.45,0.87-4.48,2.62-6.17c1.63-1.63,3.67-2.45,6.11-2.45
		c2.45,0,4.48,0.82,6.11,2.45c1.75,1.69,2.56,3.73,2.56,6.17C-50.95-81.96-51.77-79.92-53.51-78.23L-53.51-78.23z M-47.17-85.86
		c0-3.44,1.34-5.18,4.02-5.18c2.62,0,4.02,1.75,4.02,5.18v9.84h2.04v-10.54c0-1.86-0.52-3.38-1.63-4.54
		c-1.11-1.28-2.62-1.86-4.43-1.86c-1.86,0-3.32,0.58-4.43,1.86c-1.16,1.16-1.69,2.68-1.69,4.54v10.54h2.1V-85.86L-47.17-85.86z
		 M-73.6-76.02v-14.73h5.07v-1.86h-7.1v16.6H-73.6L-73.6-76.02z M-23.7-82.83c2.79-1.11,4.13-2.74,4.13-4.95
		c0-1.51-0.52-2.74-1.57-3.73c-0.99-0.99-2.21-1.46-3.67-1.46c-1.34,0-2.5,0.41-3.49,1.34c-0.93,0.87-1.51,1.98-1.69,3.32l2.1,0.47
		c0-0.93,0.29-1.69,0.93-2.33c0.64-0.58,1.34-0.87,2.27-0.87c0.87,0,1.57,0.35,2.21,0.99c0.52,0.58,0.82,1.34,0.82,2.27
		c0,1.28-0.93,2.33-2.85,3.14l-1.16,0.41c-2.33,1.11-3.55,2.5-3.55,4.25c0,1.28,0.52,2.39,1.46,3.14c0.99,0.82,2.1,1.16,3.44,1.16
		c1.92,0,3.32-0.87,4.25-2.56l-1.63-0.93c-0.64,0.99-1.51,1.51-2.68,1.51c-0.7,0-1.4-0.17-1.92-0.58c-0.58-0.47-0.87-1.05-0.87-1.75
		c0-0.99,0.76-1.75,2.39-2.33L-23.7-82.83L-23.7-82.83z M-34.3-76.02h2.1v-16.6h-2.1V-76.02L-34.3-76.02z"/>
	<path class="st1" d="M47.47,74L7.31-20.79L-3.77,3.52L16.7,59.23c1.54,4.31,6.92,6.31,16,6.31L35.93,74h-47.7l-3.08-8.46
		c6.77,0,9.54-2,8.46-6.31l-10.16-28.31l-20,43.09c-3.69,4.62-1.85,6.92,5.39,6.92v10h-46.16v-10c8.62,0,14-2.31,16.31-6.92
		l33.85-72.02l-15.85-42.32c-0.31-5.69-9.23-8.46-26.47-8.46l-3.23-8.46H59.01l18.31,38.93h-9.54C58.86-38.49,48.55-48.8,37.01-48.8
		h-60.48l8.93,23.85l7.69-15.39h17.23L59.01,74c2.31,6.92,8.31,10.62,17.7,10.62v8.93h-39.7v-8.93C49.01,84.62,52.4,80.93,47.47,74
		L47.47,74z"/>
</symbol>
<use xlink:href="#LiousVuitton-Logo"  width="192.76" height="192.76" x="-96.38" y="-96.38" transform="matrix(2.6562 0 0 -2.6562 256 256)" style="overflow:visible;"/>
</svg>
